<svg xmlns="http://www.w3.org/2000/svg" xmlns:xlink="http://www.w3.org/1999/xlink" version="1.1" enable-background="new 0 0 64 64" xml:space="preserve" width="30.16326530612247" height="30" style=""><rect id="backgroundrect" width="100%" height="100%" x="0" y="0" fill="none" stroke="none" style="" class=""/>
















<g class="currentLayer" style=""><title>Layer 1</title><g id="Sun" class="" fill="#ffffff" fill-opacity="1">
	<path d="M15.164690216809102,8.55774312420519 c-3.6644487295663097,0 -6.645843403632194,2.937458826815038 -6.645843403632194,6.547905966637312 s2.9813946740658834,6.547954187712956 6.645843403632194,6.547954187712956 s6.645841597993646,-2.9375052688607077 6.645841597993646,-6.547954187712956 S18.829138043556142,8.55774312420519 15.164690216809102,8.55774312420519 zM15.164690216809102,20.730053481205605 c-3.1477508143156765,0 -5.708526503020861,-2.5232739631262993 -5.708526503020861,-5.6244043903631065 s2.560775688705186,-5.624355279772474 5.708526503020861,-5.624355279772474 s5.708525600201588,2.5232257420506548 5.708525600201588,5.624355279772474 S18.312441031124777,20.730053481205605 15.164690216809102,20.730053481205605 z" id="svg_1" fill="#ffffff" fill-opacity="1"/>
	<path d="M15.102062309051577,6.165228145159525 c0.26238793347029676,0 0.4751680386089918,-0.20936364450725078 0.4751680386089918,-0.46816578296155487 V0.46816578296155487 c0,-0.2587552282428513 -0.21278010513869502,-0.46816578296155487 -0.4751680386089918,-0.46816578296155487 c-0.26243507013972683,0 -0.4751680386089918,0.2094105547187035 -0.4751680386089918,0.46816578296155487 v5.228896579236416 C14.626894270442587,5.955864500652273 14.839627238911852,6.165228145159525 15.102062309051577,6.165228145159525 z" id="svg_2" fill="#ffffff" fill-opacity="1"/>
	<path d="M15.102062309051577,23.79691403267989 c-0.26243507013972683,0 -0.4751680386089918,0.20936411267303362 -0.4751680386089918,0.46816578296155487 V29.494444326577934 c0,0.2587552282428513 0.21273296846926504,0.46816578296155487 0.4751680386089918,0.46816578296155487 c0.26238793347029676,0 0.4751680386089918,-0.2094105547187035 0.4751680386089918,-0.46816578296155487 V24.265079815641446 C15.577230347660565,24.00627814535293 15.364450242521874,23.79691403267989 15.102062309051577,23.79691403267989 z" id="svg_3" fill="#ffffff" fill-opacity="1"/>
	<path d="M29.482357477197837,14.25344729065021 H24.174778477907296 c-0.26238793347029676,0 -0.4751680386089918,0.2094105547187035 -0.4751680386089918,0.46816578296155487 s0.21278010513869502,0.46816667247654237 0.4751680386089918,0.46816667247654237 h5.307578999290538 c0.26243507013972683,0 0.4751680386089918,-0.20941144423369099 0.4751680386089918,-0.46816667247654237 S29.74479254733756,14.25344729065021 29.482357477197837,14.25344729065021 z" id="svg_4" fill="#ffffff" fill-opacity="1"/>
	<path d="M6.504467042135421,14.721613073611765 c0,-0.2587552282428513 -0.21277739668087495,-0.46816578296155487 -0.4751675634409531,-0.46816578296155487 H0.7217199092022868 c-0.2624353077237461,0 -0.4751680386089918,0.2094105547187035 -0.4751680386089918,0.46816578296155487 s0.21273273088524566,0.46816667247654237 0.4751680386089918,0.46816667247654237 H6.029299478694469 C6.291689645454548,15.189779792904886 6.504467042135421,14.980368348671194 6.504467042135421,14.721613073611765 z" id="svg_5" fill="#ffffff" fill-opacity="1"/>
	<path d="M21.364824337137925,9.30615224259886 c0.12159611879849117,0 0.2431433428058095,-0.045692512251264826 0.33599127258361455,-0.1371258046460177 l3.7533043925173284,-3.6978072026389466 c0.18560163373355318,-0.18286522710873523 0.18560163373355318,-0.4791205813833853 0,-0.6619862298413256 c-0.1855998280950066,-0.18291251185281435 -0.4863337747642452,-0.18291251185281435 -0.6719336028592517,0 l-3.753306198155875,3.6977607605932765 c-0.1855998280950066,0.1828656484579399 -0.1855998280950066,0.4791205813833853 0,0.6620326250704168 C21.12168460560921,9.260459683531016 21.24327711313061,9.30615224259886 21.364824337137925,9.30615224259886 z" id="svg_6" fill="#ffffff" fill-opacity="1"/>
	<path d="M21.700815609721538,21.162543907907615 c-0.18564696476443662,-0.18286475894295218 -0.4863337747642452,-0.18286475894295218 -0.671935408497799,0 c-0.1855998280950066,0.18291298001859724 -0.1855998280950066,0.4791687556424522 0,0.6620335145854045 l3.753306198155875,3.6972924075440017 c0.09279898746982808,0.09147968762384445 0.21439515378512305,0.13717224669168748 0.33599127258361455,0.13717224669168748 c0.12154717649051441,0 0.2431433428058095,-0.045692512251264826 0.33594233027563764,-0.13717224669168748 c0.18560163373355318,-0.18286475894295218 0.18560163373355318,-0.4791205813833853 0,-0.6619853403263376 L21.700815609721538,21.162543907907615 z" id="svg_7" fill="#ffffff" fill-opacity="1"/>
	<path d="M8.503261871712182,9.16902643795284 c0.09284792977780479,0.09143329239475297 0.21439515378512305,0.1371258046460177 0.33599127258361455,0.1371258046460177 c0.1215480793097878,0 0.2431433428058095,-0.045692512251264826 0.33594323309491103,-0.1371258046460177 c0.18560343937210005,-0.18291209050360963 0.18560343937210005,-0.4791669766124769 0,-0.6620326250704168 L5.42236691532797,4.809233005472569 c-0.18564786758371002,-0.18291251185281435 -0.48633196912569854,-0.18291251185281435 -0.6719349808465638,0 c-0.18560073091427992,0.1828656484579399 -0.18560073091427992,0.47912100273259 0,0.6619862298413256 L8.503261871712182,9.16902643795284 z" id="svg_8" fill="#ffffff" fill-opacity="1"/>
	<path d="M9.196294408506592,21.19391162398156 c-0.00841056931698688,-0.009738550534274791 -0.011689608917819816,-0.02209705042315903 -0.021098031115885586,-0.03136771607394203 c-0.18560073091427992,-0.18286475894295218 -0.4862839296369951,-0.18286475894295218 -0.6719345056785251,0 l-1.8722099215409151,1.8445743084664041 l-1.9169204779993971,1.7999569389357106 c-0.19002216951353673,0.1784642814825834 -0.19729214547064647,0.47467366187734666 -0.016155428211882584,0.6618924562349983 c0.009168224754548922,0.009504608092528904 0.021617769916516094,0.01301571101500567 0.03136109054819352,0.021536281448327678 c0.00840786085916681,0.009783213549969317 0.011686425291961141,0.022143492468828803 0.02109484749002691,0.0313659370439668 c0.09280036545714004,0.09147968762384445 0.2143960566043964,0.13717224669168748 0.3359437082629499,0.13717224669168748 c0.1215956911472565,0 0.24314377045704438,-0.045692512251264826 0.33599127258361455,-0.13717224669168748 l1.8722099215409151,-1.8445260873907596 l1.9169227588059825,-1.7999569389357106 c0.19001988870695144,-0.1784642814825834 0.19729214547064647,-0.47467366187734666 0.01615590337992118,-0.6618924562349983 C9.218484518325614,21.205989739383025 9.206035448331685,21.202432241231456 9.196294408506592,21.19391162398156 z" id="svg_9" fill="#ffffff" fill-opacity="1"/>
</g><g id="svg_10">
</g><g id="svg_11">
</g><g id="svg_12">
</g><g id="svg_13">
</g><g id="svg_14">
</g><g id="svg_15">
</g><g id="svg_16">
</g><g id="svg_17">
</g><g id="svg_18">
</g><g id="svg_19">
</g><g id="svg_20">
</g><g id="svg_21">
</g><g id="svg_22">
</g><g id="svg_23">
</g><g id="svg_24">
</g></g></svg>